<svg width="83" height="83" viewBox="0 0 83 83" fill="none" xmlns="http://www.w3.org/2000/svg">
<path d="M82.9999 41.3333C82.9999 64.1611 64.4944 82.6667 41.6666 82.6667C18.8388 82.6667 0.333252 64.1611 0.333252 41.3333C0.333252 18.5056 18.8388 0 41.6666 0C64.4944 0 82.9999 18.5056 82.9999 41.3333Z" fill="#2F80ED"/>
<path fill-rule="evenodd" clip-rule="evenodd" d="M41.6666 26.7451C37.6366 26.7451 34.3725 30.0092 34.3725 34.0392C34.3725 38.0692 37.6366 41.3333 41.6666 41.3333C45.6966 41.3333 48.9607 38.0692 48.9607 34.0392C48.9607 30.0092 45.6966 26.7451 41.6666 26.7451ZM45.3137 34.0392C45.3137 32.0333 43.6725 30.3921 41.6666 30.3921C39.6607 30.3921 38.0195 32.0333 38.0195 34.0392C38.0195 36.0451 39.6607 37.6863 41.6666 37.6863C43.6725 37.6863 45.3137 36.0451 45.3137 34.0392ZM52.6078 52.2745C52.2431 50.9798 46.5901 48.6274 41.6666 48.6274C36.7613 48.6274 31.1448 50.9616 30.7254 52.2745H52.6078ZM27.0784 52.2745C27.0784 47.4239 36.7978 44.9804 41.6666 44.9804C46.5354 44.9804 56.2548 47.4239 56.2548 52.2745V55.9216H27.0784V52.2745Z" fill="white"/>
</svg>
