<svg width="1920" height="1080" viewBox="0 0 1920 1080" fill="none" xmlns="http://www.w3.org/2000/svg">
<g clip-path="url(#clip0_1_2489)">
<rect width="1920" height="1080" fill="#0F8A69"/>
<g clip-path="url(#clip1_1_2489)">
<g clip-path="url(#clip2_1_2489)">
<rect opacity="0.5" x="0.5" y="0.611328" width="1919" height="1079" stroke="#B9B9B9"/>
<path d="M742.181 680.48C738.001 677.44 734.011 674.02 730.021 670.41L723.181 663.76C736.481 645.9 741.421 630.7 741.421 608.28C741.421 558.31 711.591 526.39 665.231 526.39C618.111 526.39 587.901 558.69 587.901 608.85C587.901 659.2 617.921 691.5 665.041 691.5C679.101 691.5 689.741 689.03 700.951 682.76C714.061 695.49 716.721 698.15 720.901 703.28L742.181 680.48ZM659.911 644.76C665.231 648.94 668.651 651.98 674.541 657.3C671.691 658.44 668.271 659.01 664.661 659.01C655.351 659.01 646.801 655.59 640.721 649.32C631.791 640.39 627.231 626.14 627.231 607.9C627.231 577.69 641.481 559.07 664.661 559.07C688.031 559.07 702.281 577.88 702.281 608.85C702.281 621.77 700.571 629.94 696.201 638.11C684.801 627.28 684.801 627.28 681.571 623.48L659.911 644.76ZM839.412 571.99C840.552 581.87 840.932 589.85 840.932 600.49V639.44C833.522 651.6 822.882 659.01 812.432 659.01C806.922 659.01 802.742 657.11 800.082 653.69C797.802 650.65 797.042 647.23 797.042 639.44V600.49C797.042 589.09 797.422 581.11 798.562 571.99H759.042C759.992 579.97 760.562 589.47 760.562 600.49V648.18C760.562 663.19 763.792 672.5 771.392 680.1C778.612 687.13 788.872 690.74 801.602 690.74C817.752 690.74 828.582 686.18 841.122 674.4C840.932 675.73 840.932 678.58 840.932 679.53V687.7H878.742C877.602 680.1 877.222 672.31 877.222 659.2V600.49C877.222 588.9 877.602 580.92 878.742 571.99H839.412ZM899.333 529.81V558.31H937.903V529.81H899.333ZM898.763 571.99C899.903 580.54 900.283 588.33 900.283 600.68V659.2C900.283 671.36 899.903 678.58 898.763 687.89H938.473C937.523 679.72 936.953 669.46 936.953 659.2V600.68C936.953 587.38 937.333 579.78 938.473 571.99H898.763ZM1070.61 607.14C1064.34 581.87 1044.01 567.43 1014.75 567.43C977.695 567.43 953.755 591.75 953.755 629.75C953.755 648.37 959.835 665.09 970.855 675.92C981.305 686.56 996.885 692.26 1015.13 692.26C1037.17 692.26 1054.46 684.47 1063.96 670.41C1067.57 664.9 1069.85 659.77 1071.94 651.6L1036.98 646.09C1036.22 650.46 1035.27 652.36 1033.56 654.83C1029.76 660.15 1022.92 663.19 1015.51 663.19C1000.31 663.19 990.615 649.89 990.615 629.37C990.615 608.47 999.735 596.31 1015.13 596.31C1021.97 596.31 1027.29 598.59 1031.09 602.96C1033.56 605.81 1034.7 608.47 1036.41 614.17L1070.61 607.14ZM1086.72 529.81C1087.67 536.84 1088.24 545.58 1088.24 558.5V659.2C1088.24 671.74 1087.86 679.34 1086.72 687.89H1125.48C1124.15 680.29 1123.96 675.73 1123.96 660.15V652.55L1138.21 638.87L1152.65 662.43C1158.16 671.55 1162.34 679.91 1165.19 687.89H1213.64C1208.32 681.43 1207.56 680.29 1195.97 663.57L1164.24 617.21L1191.79 590.61C1202.05 580.54 1204.33 578.45 1211.74 571.99H1161.2C1157.59 577.5 1153.41 582.44 1144.67 591.18L1123.77 611.89V558.5C1123.77 545.77 1124.15 537.6 1125.29 529.81H1086.72ZM1221.51 653.31C1223.41 662.43 1225.31 666.99 1229.11 672.31C1238.23 684.85 1255.14 691.31 1279.08 691.31C1299.41 691.31 1314.99 686.56 1324.11 677.44C1330.38 671.36 1333.8 662.24 1333.8 652.17C1333.8 638.49 1327.91 629.18 1315.56 623.1C1308.91 619.68 1303.02 617.97 1284.4 613.98C1265.59 609.8 1261.6 607.9 1261.6 602.77C1261.6 597.83 1267.68 594.6 1277.56 594.6C1287.82 594.6 1292.57 598.02 1293.52 605.81L1330.19 601.82C1327.15 591.18 1324.11 585.67 1317.84 580.16C1308.91 571.99 1295.42 568 1277.37 568C1245.64 568 1226.45 581.87 1226.45 604.67C1226.45 611.13 1228.16 617.59 1231.2 622.72C1234.81 628.42 1241.08 632.79 1250.2 636.21C1256.47 638.3 1263.88 640.2 1278.32 643.05C1288.77 645.14 1291.24 645.9 1293.9 647.42C1296.56 648.94 1298.08 651.41 1298.08 654.26C1298.08 660.15 1291.62 663.38 1280.22 663.38C1267.49 663.38 1261.03 659.01 1259.13 649.13L1221.51 653.31Z" fill="white"/>
<path d="M592.261 460.2C593.591 468.94 594.541 473.31 596.441 477.87C600.431 488.7 607.461 496.87 616.961 502.19C627.221 508.08 643.181 511.5 659.331 511.5C681.561 511.5 698.281 505.99 709.301 495.35C718.041 486.8 722.601 474.64 722.601 460.39C722.601 442.91 715.761 430.18 702.081 421.63C694.861 417.07 685.741 413.84 671.301 410.8C648.881 406.24 648.881 406.24 645.081 404.53C639.001 401.68 636.151 397.69 636.151 392.37C636.151 383.63 644.701 377.36 656.291 377.36C670.731 377.36 677.571 382.49 679.851 394.84L720.131 390.47C717.661 379.64 715.381 373.94 710.631 367.67C700.371 353.42 681.941 346.01 657.811 346.01C620.381 346.01 596.821 364.44 596.821 393.7C596.821 409.09 603.281 421.82 615.251 430.18C622.281 435.12 628.361 437.4 645.841 441.2C665.601 445.76 670.351 447.09 674.341 448.99C679.281 451.27 682.321 456.4 682.321 462.29C682.321 472.93 673.581 479.39 658.951 479.39C649.261 479.39 641.281 476.16 636.721 470.46C633.871 466.66 632.541 463.24 631.781 456.4L592.261 460.2ZM740.969 349.81V378.31H779.539V349.81H740.969ZM740.399 391.99C741.539 400.54 741.919 408.33 741.919 420.68V479.2C741.919 491.36 741.539 498.58 740.399 507.89H780.109C779.159 499.72 778.589 489.46 778.589 479.2V420.68C778.589 407.38 778.969 399.78 780.109 391.99H740.399ZM839.471 507.89C838.331 498.58 837.951 491.17 837.951 479.2V440.82C843.271 427.9 852.011 420.49 862.271 420.49C866.831 420.49 870.631 422.2 872.721 425.24C875.191 428.47 875.951 432.08 875.951 440.06V479.2C875.951 491.36 875.571 499.34 874.431 507.89H913.951C912.811 498.77 912.431 490.79 912.431 479.39V440.63C917.181 427.9 925.921 420.3 935.611 420.3C946.441 420.3 950.621 425.81 950.621 440.06V479.2C950.621 492.12 950.241 498.96 949.101 507.89H988.621C987.481 498.96 987.101 491.17 987.101 479.39V432.27C987.101 403.58 973.231 388.76 946.061 388.76C929.531 388.76 917.941 393.7 906.161 405.29C903.691 400.54 901.791 398.26 898.371 395.79C892.101 391.23 883.931 388.95 874.051 388.95C859.041 388.95 847.451 393.89 837.761 404.53C837.761 404.15 837.761 403.77 837.761 403.58C837.761 403.01 837.761 402.63 837.761 402.63C837.951 400.73 837.951 400.73 837.951 399.97V391.99H800.331C801.471 399.4 801.851 406.24 801.851 420.68V479.2C801.851 491.17 801.471 499.15 800.331 507.89H839.471ZM1047.28 542.28C1046.14 534.11 1045.76 525.37 1045.76 514.73V501.62C1045.57 498.96 1045.57 496.49 1045.57 494.78C1050.89 499.34 1053.74 501.43 1058.68 503.52C1065.71 506.56 1075.4 508.46 1084.33 508.46C1099.91 508.46 1113.78 503.14 1123.47 493.45C1134.3 482.62 1140 466.85 1140 447.47C1140 428.28 1134.87 413.27 1124.8 403.2C1114.92 393.51 1101.24 388.57 1084.52 388.57C1068.75 388.57 1056.97 392.56 1045.57 402.06C1045.57 401.11 1045.76 399.59 1045.76 398.45V391.99H1008.33C1009.47 401.68 1009.85 409.47 1009.85 421.82V514.54C1009.85 524.61 1009.28 534.11 1008.33 542.28H1047.28ZM1075.97 479.77C1058.87 479.77 1046.14 466.28 1046.14 448.42C1046.14 431.13 1059.06 417.26 1074.83 417.26C1092.69 417.26 1102.95 428.47 1102.95 447.85C1102.95 458.68 1099.91 467.42 1094.59 472.55C1089.65 477.3 1083.19 479.77 1075.97 479.77ZM1155.28 349.81C1156.42 357.03 1156.8 365.01 1156.8 378.5V479.2C1156.8 492.88 1156.42 499.34 1155.28 507.89H1194.99C1193.85 497.82 1193.47 490.6 1193.47 479.2V378.5C1193.47 365.58 1193.85 357.79 1194.99 349.81H1155.28ZM1330.55 460.58C1330.36 458.68 1330.36 457.54 1330.36 456.78C1329.79 445.95 1329.03 437.97 1327.51 431.89C1320.86 403.58 1300.15 387.43 1270.51 387.43C1234.22 387.43 1210.09 412.32 1210.09 449.94C1210.09 468.75 1216.17 484.9 1227.38 496.3C1238.21 507.13 1252.84 512.45 1271.46 512.45C1290.27 512.45 1305.47 506.94 1316.3 496.3C1321.62 490.98 1324.47 486.61 1328.84 476.73L1295.78 467.42C1294.26 472.36 1292.93 474.45 1290.08 477.11C1285.14 481.67 1278.49 484.14 1270.89 484.14C1255.88 484.14 1246.95 475.97 1245.05 460.58H1330.55ZM1245.62 434.36C1248.85 421.82 1257.02 415.74 1270.51 415.74C1283.62 415.74 1291.79 422.2 1294.45 434.36H1245.62Z" fill="white"/>
</g>
</g>
</g>
<defs>
<clipPath id="clip0_1_2489">
<rect width="1920" height="1080" fill="white"/>
</clipPath>
<clipPath id="clip1_1_2489">
<rect width="1920" height="1080" fill="white"/>
</clipPath>
<clipPath id="clip2_1_2489">
<rect width="1920" height="1080" fill="white" transform="translate(0 0.111328)"/>
</clipPath>
</defs>
</svg>
